<svg xmlns="http://www.w3.org/2000/svg" width="664" height="790" viewBox="68 -20 664 790">
<defs><marker id="arrow-fab005" markerWidth="10" markerHeight="7" refX="9" refY="3.5" orient="auto"><polygon points="0 0, 10 3.5, 0 7" fill="#fab005" /></marker><marker id="arrow-868e96" markerWidth="10" markerHeight="7" refX="9" refY="3.5" orient="auto"><polygon points="0 0, 10 3.5, 0 7" fill="#868e96" /></marker><style>text { font-family: "DM Sans", "Segoe UI", system-ui, -apple-system, sans-serif; }</style></defs>
<text x="140" y="24" font-size="24" fill="#228be6">Parameter Threading Call Chain</text>
<rect x="160" y="48" width="480" height="48" rx="8" stroke="#f8f9fa" fill="#228be6" stroke-width="1" />
<text x="400" y="72" font-size="12" fill="#f8f9fa" text-anchor="middle" dominant-baseline="central">log_model(uv_project_path, uv_groups, uv_extras)</text>
<path d="M 400 96 L 400 144" stroke="#fab005" fill="none" stroke-width="2" marker-end="url(#arrow-fab005)" />
<text x="416" y="125" font-size="11" fill="#fab005">passes all 3 params</text>
<rect x="160" y="152" width="480" height="48" rx="8" stroke="#f8f9fa" fill="#228be6" stroke-width="1" />
<text x="400" y="176" font-size="12" fill="#f8f9fa" text-anchor="middle" dominant-baseline="central">save_model(uv_project_path, uv_groups, uv_extras)</text>
<path d="M 400 200 L 400 248" stroke="#fab005" fill="none" stroke-width="2" marker-end="url(#arrow-fab005)" />
<text x="416" y="229" font-size="11" fill="#fab005">passes all 3 params</text>
<rect x="128" y="256" width="544" height="48" rx="8" stroke="#f8f9fa" fill="#3b5bdb" stroke-width="1" />
<text x="400" y="280" font-size="12" fill="#f8f9fa" text-anchor="middle" dominant-baseline="central">_save_model_with_*(uv_project_path, uv_groups, uv_extras)</text>
<path d="M 400 304 L 400 360" stroke="#fab005" fill="none" stroke-width="2" marker-end="url(#arrow-fab005)" />
<text x="416" y="333" font-size="11" fill="#fab005">passes uv_groups, uv_extras</text>
<text x="416" y="348" font-size="10" fill="#868e96">uv_project_path used for copy_uv_project_files only</text>
<rect x="168" y="368" width="464" height="48" rx="8" stroke="#f8f9fa" fill="#3b5bdb" stroke-width="1" />
<text x="400" y="392" font-size="13" fill="#f8f9fa" text-anchor="middle" dominant-baseline="central">infer_pip_requirements(uv_groups, uv_extras)</text>
<path d="M 400 416 L 400 464" stroke="#fab005" fill="none" stroke-width="2" marker-end="url(#arrow-fab005)" />
<text x="416" y="445" font-size="11" fill="#fab005">maps to groups, extras</text>
<rect x="176" y="472" width="448" height="48" rx="8" stroke="#f8f9fa" fill="#5c7cfa" stroke-width="1" />
<text x="400" y="496" font-size="13" fill="#f8f9fa" text-anchor="middle" dominant-baseline="central">export_uv_requirements(groups, extras)</text>
<path d="M 400 520 L 400 568" stroke="#868e96" fill="none" stroke-width="2" marker-end="url(#arrow-868e96)" />
<text x="416" y="549" font-size="11" fill="#868e96">subprocess</text>
<rect x="136" y="576" width="528" height="48" rx="8" stroke="#dee2e6" fill="#1864ab" stroke-width="1" />
<text x="400" y="600" font-size="12" fill="#dee2e6" text-anchor="middle" dominant-baseline="central">uv export --group G --extra E --frozen --no-dev</text>
<path d="M 400 624 L 400 672" stroke="#868e96" fill="none" stroke-width="2" marker-end="url(#arrow-868e96)" />
<text x="416" y="653" font-size="11" fill="#868e96">outputs</text>
<rect x="88" y="680" width="272" height="40" rx="8" stroke="#212529" fill="#40c057" stroke-width="1" />
<text x="224" y="700" font-size="12" fill="#212529" text-anchor="middle" dominant-baseline="central">requirements.txt (PEP 508)</text>
<rect x="392" y="680" width="320" height="40" rx="8" stroke="#212529" fill="#40c057" stroke-width="1" />
<text x="552" y="700" font-size="11" fill="#212529" text-anchor="middle" dominant-baseline="central">uv.lock + pyproject.toml + .python-version</text>
<text x="136" y="746" font-size="10" fill="#868e96">* = _save_model_with_loader_module...() or _save_model_with_class...()</text>
</svg>
