<svg xmlns="http://www.w3.org/2000/svg" width="716" height="840" viewBox="-12 -20 716 840">
<defs><marker id="arrow-868e96" markerWidth="10" markerHeight="7" refX="9" refY="3.5" orient="auto"><polygon points="0 0, 10 3.5, 0 7" fill="#868e96" /></marker><style>text { font-family: "Segoe UI", system-ui, -apple-system, sans-serif; }</style></defs>
<text x="180" y="28" font-size="28" fill="#228be6">UV Model Logging Flow</text>
<rect x="220" y="56" width="320" height="56" rx="8" stroke="#f8f9fa" fill="#228be6" stroke-width="1" />
<text x="380" y="84" font-size="16" fill="#f8f9fa" text-anchor="middle" dominant-baseline="central">save_model() / log_model()</text>
<path d="M 380 112 L 380 168" stroke="#868e96" fill="none" stroke-width="2" marker-end="url(#arrow-868e96)" />
<polygon points="380,176 512,224 380,272 248,224" stroke="#343a40" fill="#fab005" stroke-width="1" />
<text x="380" y="224" font-size="14" fill="#343a40" text-anchor="middle" dominant-baseline="central">UV project detected?</text>
<path d="M 248 224 L 128 296" stroke="#868e96" fill="none" stroke-width="2" marker-end="url(#arrow-868e96)" />
<text x="168" y="262" font-size="14" fill="#fa5252">No</text>
<rect x="8" y="304" width="248" height="48" rx="8" stroke="#f8f9fa" fill="#868e96" stroke-width="1" />
<text x="132" y="328" font-size="14" fill="#f8f9fa" text-anchor="middle" dominant-baseline="central">pip-based inference</text>
<path d="M 380 272 L 380 312" stroke="#868e96" fill="none" stroke-width="2" marker-end="url(#arrow-868e96)" />
<text x="392" y="298" font-size="14" fill="#40c057">Yes</text>
<rect x="232" y="320" width="296" height="48" rx="8" stroke="#f8f9fa" fill="#228be6" stroke-width="1" />
<text x="380" y="344" font-size="14" fill="#f8f9fa" text-anchor="middle" dominant-baseline="central">export_uv_requirements()</text>
<path d="M 380 368 L 380 408" stroke="#868e96" fill="none" stroke-width="2" marker-end="url(#arrow-868e96)" />
<rect x="224" y="416" width="312" height="48" rx="8" stroke="#dee2e6" fill="#1864ab" stroke-width="1" />
<text x="380" y="440" font-size="13" fill="#dee2e6" text-anchor="middle" dominant-baseline="central">uv export --frozen --no-dev</text>
<path d="M 380 464 L 380 504" stroke="#868e96" fill="none" stroke-width="2" marker-end="url(#arrow-868e96)" />
<rect x="232" y="512" width="296" height="48" rx="8" stroke="#f8f9fa" fill="#228be6" stroke-width="1" />
<text x="380" y="536" font-size="14" fill="#f8f9fa" text-anchor="middle" dominant-baseline="central">Filter PEP 508 markers</text>
<path d="M 300 560 L 200 624" stroke="#868e96" fill="none" stroke-width="2" marker-end="url(#arrow-868e96)" />
<path d="M 460 560 L 560 624" stroke="#868e96" fill="none" stroke-width="2" marker-end="url(#arrow-868e96)" />
<rect x="76" y="632" width="248" height="48" rx="8" stroke="#212529" fill="#40c057" stroke-width="1" />
<text x="200" y="656" font-size="14" fill="#212529" text-anchor="middle" dominant-baseline="central">requirements.txt</text>
<rect x="436" y="632" width="248" height="48" rx="8" stroke="#212529" fill="#40c057" stroke-width="1" />
<text x="560" y="656" font-size="14" fill="#212529" text-anchor="middle" dominant-baseline="central">UV artifacts</text>
<path d="M 200 680 L 330 736" stroke="#868e96" fill="none" stroke-width="2" marker-end="url(#arrow-868e96)" />
<path d="M 560 680 L 430 736" stroke="#868e96" fill="none" stroke-width="2" marker-end="url(#arrow-868e96)" />
<rect x="268" y="744" width="224" height="56" rx="8" stroke="#212529" fill="#12b886" stroke-width="1" />
<text x="380" y="772" font-size="16" fill="#212529" text-anchor="middle" dominant-baseline="central">Model Artifacts</text>
</svg>