<svg xmlns="http://www.w3.org/2000/svg" width="728" height="896" viewBox="-4 -20 728 896">
<defs><marker id="arrow-868e96" markerWidth="10" markerHeight="7" refX="9" refY="3.5" orient="auto"><polygon points="0 0, 10 3.5, 0 7" fill="#868e96" /></marker><style>text { font-family: "Segoe UI", system-ui, -apple-system, sans-serif; }</style></defs>
<text x="165" y="28" font-size="28" fill="#228be6">UV Model Logging Flow</text>
<rect x="220" y="48" width="320" height="56" rx="8" stroke="#f8f9fa" fill="#228be6" stroke-width="1" />
<text x="380" y="76" font-size="16" fill="#f8f9fa" text-anchor="middle" dominant-baseline="central">save_model() / log_model()</text>
<path d="M 380 104 L 380 152" stroke="#868e96" fill="none" stroke-width="2" marker-end="url(#arrow-868e96)" />
<rect x="210" y="160" width="360" height="48" rx="8" stroke="#f8f9fa" fill="#228be6" stroke-width="1" />
<text x="390" y="184" font-size="13" fill="#f8f9fa" text-anchor="middle" dominant-baseline="central">infer_pip_requirements(uv_groups, uv_extras)</text>
<path d="M 390 208 L 390 240" stroke="#868e96" fill="none" stroke-width="2" marker-end="url(#arrow-868e96)" />
<polygon points="400,248 544,296 400,344 256,296" stroke="#343a40" fill="#fab005" stroke-width="1" />
<text x="400" y="296" font-size="14" fill="#343a40" text-anchor="middle" dominant-baseline="central">UV enabled &amp; detected?</text>
<text x="172" y="330" font-size="14" fill="#fa5252">No</text>
<path d="M 256 296 L 120 384" stroke="#868e96" fill="none" stroke-width="2" marker-end="url(#arrow-868e96)" />
<rect x="16" y="392" width="208" height="48" rx="8" stroke="#f8f9fa" fill="#868e96" stroke-width="1" />
<text x="120" y="416" font-size="14" fill="#f8f9fa" text-anchor="middle" dominant-baseline="central">pip-based inference</text>
<text x="412" y="362" font-size="14" fill="#40c057">Yes</text>
<path d="M 400 344 L 400 392" stroke="#868e96" fill="none" stroke-width="2" marker-end="url(#arrow-868e96)" />
<rect x="252" y="400" width="296" height="48" rx="8" stroke="#f8f9fa" fill="#228be6" stroke-width="1" />
<text x="400" y="424" font-size="14" fill="#f8f9fa" text-anchor="middle" dominant-baseline="central">export_uv_requirements()</text>
<path d="M 400 448 L 400 488" stroke="#868e96" fill="none" stroke-width="2" marker-end="url(#arrow-868e96)" />
<rect x="244" y="496" width="312" height="48" rx="8" stroke="#dee2e6" fill="#1864ab" stroke-width="1" />
<text x="400" y="520" font-size="13" fill="#dee2e6" text-anchor="middle" dominant-baseline="central">uv export --frozen --no-dev</text>
<path d="M 400 544 L 400 584" stroke="#868e96" fill="none" stroke-width="2" marker-end="url(#arrow-868e96)" />
<rect x="252" y="592" width="296" height="48" rx="8" stroke="#f8f9fa" fill="#228be6" stroke-width="1" />
<text x="400" y="616" font-size="14" fill="#f8f9fa" text-anchor="middle" dominant-baseline="central">Filter PEP 508 markers</text>
<path d="M 320 640 L 216 688" stroke="#868e96" fill="none" stroke-width="2" marker-end="url(#arrow-868e96)" />
<path d="M 480 640 L 576 688" stroke="#868e96" fill="none" stroke-width="2" marker-end="url(#arrow-868e96)" />
<rect x="96" y="696" width="240" height="48" rx="8" stroke="#212529" fill="#40c057" stroke-width="1" />
<text x="216" y="720" font-size="14" fill="#212529" text-anchor="middle" dominant-baseline="central">requirements.txt</text>
<rect x="448" y="696" width="256" height="48" rx="8" stroke="#212529" fill="#40c057" stroke-width="1" />
<text x="576" y="720" font-size="13" fill="#212529" text-anchor="middle" dominant-baseline="central">copy_uv_project_files()</text>
<path d="M 216 744 L 340 792" stroke="#868e96" fill="none" stroke-width="2" marker-end="url(#arrow-868e96)" />
<path d="M 576 744 L 460 792" stroke="#868e96" fill="none" stroke-width="2" marker-end="url(#arrow-868e96)" />
<path d="M 120 440 L 120 800 L 260 800" stroke="#868e96" fill="none" stroke-width="2" marker-end="url(#arrow-868e96)" />
<rect x="260" y="800" width="280" height="56" rx="8" stroke="#212529" fill="#12b886" stroke-width="1" />
<text x="400" y="828" font-size="16" fill="#212529" text-anchor="middle" dominant-baseline="central">Model Artifacts</text>
<text x="560" y="487" font-size="11" fill="#868e96">Falls back to pip</text>
<text x="560" y="501" font-size="11" fill="#868e96">on failure</text>
</svg>