<svg xmlns="http://www.w3.org/2000/svg" width="800" height="558" viewBox="0 -20 800 558">
<defs><marker id="arrow-adb5bd" markerWidth="10" markerHeight="7" refX="9" refY="3.5" orient="auto"><polygon points="0 0, 10 3.5, 0 7" fill="#adb5bd" /></marker><style>text { font-family: "Segoe UI", system-ui, -apple-system, sans-serif; }</style></defs>
<text x="200" y="24" font-size="24" fill="#4c6ef5">Environment Restoration Flow</text>
<rect x="270" y="50" width="260" height="48" rx="8" stroke="#364fc7" fill="#4c6ef5" stroke-width="1" />
<text x="290" y="77" font-size="15" fill="#ffffff">mlflow.pyfunc.load_model()</text>
<path d="M 400 98 L 400 138" stroke="#adb5bd" fill="none" stroke-width="1" marker-end="url(#arrow-adb5bd)" />
<polygon points="400,148 510,183 400,218 290,183" stroke="#e8590c" fill="#fcc419" stroke-width="1" />
<text x="322" y="181" font-size="13" fill="#1e1e1e">UV artifacts
  present?</text>
<path d="M 290 183 L 110 253" stroke="#adb5bd" fill="none" stroke-width="2" marker-end="url(#arrow-adb5bd)" />
<text x="128" y="228" font-size="13" fill="#ff6b6b">No</text>
<path d="M 510 183 L 690 253" stroke="#adb5bd" fill="none" stroke-width="2" marker-end="url(#arrow-adb5bd)" />
<text x="620" y="228" font-size="13" fill="#51cf66">Yes</text>
<rect x="20" y="270" width="200" height="110" rx="8" stroke="#c92a2a" fill="#e8590c" stroke-width="1" />
<text x="30" y="286" font-size="11" fill="#ff8787">Conda Path</text>
<rect x="30" y="295" width="180" height="40" rx="8" stroke="#e03131" fill="#ff6b6b" stroke-width="1" />
<text x="50" y="320" font-size="13" fill="#ffffff">conda env create</text>
<rect x="30" y="345" width="180" height="28" rx="8" stroke="#495057" fill="#868e96" stroke-width="1" />
<text x="60" y="363" font-size="12" fill="#ffffff">conda.yaml</text>
<rect x="250" y="270" width="200" height="110" rx="8" stroke="#c92a2a" fill="#e8590c" stroke-width="1" />
<text x="260" y="286" font-size="11" fill="#ff8787">Pip Path</text>
<rect x="260" y="295" width="180" height="40" rx="8" stroke="#e03131" fill="#ff6b6b" stroke-width="1" />
<text x="298" y="320" font-size="13" fill="#ffffff">pip install -r</text>
<rect x="260" y="345" width="180" height="28" rx="8" stroke="#495057" fill="#868e96" stroke-width="1" />
<text x="275" y="363" font-size="12" fill="#ffffff">requirements.txt</text>
<path d="M 350 248 L 350 265" stroke="#adb5bd" fill="none" stroke-width="1" marker-end="url(#arrow-adb5bd)" />
<rect x="530" y="270" width="250" height="140" rx="8" stroke="#0ca678" fill="#087f5b" stroke-width="1" />
<text x="540" y="286" font-size="11" fill="#51cf66">UV Path (Fast)</text>
<rect x="540" y="295" width="230" height="40" rx="8" stroke="#0ca678" fill="#20c997" stroke-width="1" />
<text x="575" y="321" font-size="14" fill="#1e1e1e">uv sync --frozen</text>
<rect x="540" y="345" width="230" height="55" rx="8" stroke="#495057" fill="#868e96" stroke-width="1" />
<text x="555" y="361" font-size="12" fill="#ffffff">uv.lock + pyproject.toml
+ .python-version</text>
<text x="575" y="427" font-size="12" fill="#51cf66">~10x faster than pip</text>
<path d="M 120 380 L 400 460" stroke="#adb5bd" fill="none" stroke-width="1" marker-end="url(#arrow-adb5bd)" />
<path d="M 350 380 L 400 460" stroke="#adb5bd" fill="none" stroke-width="1" marker-end="url(#arrow-adb5bd)" />
<path d="M 655 400 L 400 460" stroke="#adb5bd" fill="none" stroke-width="1" marker-end="url(#arrow-adb5bd)" />
<rect x="270" y="468" width="260" height="50" rx="8" stroke="#0ca678" fill="#20c997" stroke-width="1" />
<text x="282" y="493" font-size="15" fill="#1e1e1e">Restored Python Environment</text>
</svg>